<?xml version="1.0" encoding="UTF-8"?>
<svg width="36px" height="36px" viewBox="0 0 36 36" version="1.1" xmlns="http://www.w3.org/2000/svg" xmlns:xlink="http://www.w3.org/1999/xlink">
    <!-- Generator: Sketch 46.2 (44496) - http://www.bohemiancoding.com/sketch -->
    <title>if_facebook_245987</title>
    <desc>Created with Sketch.</desc>
    <defs></defs>
    <g id="Welcome" stroke="none" stroke-width="1" fill="none" fill-rule="evenodd">
        <g id="Desktop-HD" transform="translate(-1187.000000, -2958.000000)">
            <g id="Footer" transform="translate(165.000000, 2959.000000)">
                <g id="Follow-us" transform="translate(881.000000, 0.000000)">
                    <g id="if_facebook_245987" transform="translate(142.000000, 0.000000)">
                        <path d="M17,4.9525271e-15 C26.3893125,4.9525271e-15 34,7.61175 34,17 C34,26.3893125 26.3893125,34 17,34 C7.6106875,34 0,26.3893125 0,17 C0,7.61175 7.6106875,0 17,4.9525271e-15 Z" id="Shape" stroke="#0009BD"></path>
                        <path d="M19.6866118,12.236375 L22,12.236375 L22,9 L19.2804787,9 L19.2804787,9.0116875 C15.9854151,9.1221875 15.3100224,10.876375 15.250561,12.71875 L15.2438295,12.71875 L15.2438295,14.3348125 L13,14.3348125 L13,17.50425 L15.2438295,17.50425 L15.2438295,26 L18.6252805,26 L18.6252805,17.50425 L21.395288,17.50425 L21.9304413,14.3348125 L18.6264024,14.3348125 L18.6264024,13.358375 C18.6264024,12.73575 19.0639491,12.236375 19.6866118,12.236375 L19.6866118,12.236375 Z" id="Shape" fill="#0009BD" fill-rule="nonzero"></path>
                    </g>
                </g>
            </g>
        </g>
    </g>
</svg>