<?xml version="1.0" encoding="UTF-8" standalone="no"?>
<svg width="36px" height="36px" viewBox="0 0 36 36" version="1.1" xmlns="http://www.w3.org/2000/svg" xmlns:xlink="http://www.w3.org/1999/xlink">
    <!-- Generator: Sketch 46.2 (44496) - http://www.bohemiancoding.com/sketch -->
    <title>if_twitter_313466</title>
    <desc>Created with Sketch.</desc>
    <defs></defs>
    <g id="Welcome" stroke="none" stroke-width="1" fill="none" fill-rule="evenodd">
        <g id="Desktop-HD" transform="translate(-1187.000000, -3468.000000)" fill-rule="nonzero" fill="#0009BD">
            <g id="if_twitter_313466" transform="translate(1187.500000, 3468.500000)">
                <path d="M29,12.0123907 C28.2279958,12.3542355 27.397173,12.584792 26.5254297,12.6879565 C27.4155042,12.1571805 28.0980174,11.3163359 28.4198963,10.3133757 C27.5873414,10.8054739 26.6657285,11.1627035 25.6839978,11.3554449 C24.8983535,10.5215019 23.7784892,10 22.5393276,10 C20.1603105,10 18.2312744,11.9214478 18.2312744,14.2918589 C18.2312744,14.6277366 18.2692359,14.9551312 18.3429938,15.2698009 C14.7621993,15.090575 11.5872176,13.3822859 9.46223954,10.7856318 C9.09135711,11.4191409 8.87903251,12.1563178 8.87903251,12.9436031 C8.87903251,14.4324071 9.63956162,15.7462267 10.7955832,16.5156829 C10.0896869,16.4931809 9.42507191,16.300008 8.84402998,15.9785086 C8.84359696,15.9963378 8.84359696,16.0145982 8.84359696,16.0327868 C8.84359696,18.1118211 10.3287866,19.8459912 12.2998979,20.2409639 C11.9383976,20.3386646 11.5577722,20.3913612 11.1647335,20.3913612 C10.8868063,20.3913612 10.6168899,20.3645456 10.3539018,20.3140777 C10.9025394,22.0189879 12.4934583,23.2602689 14.3784706,23.2945612 C12.9039621,24.445762 11.0466632,25.1320396 9.0277752,25.1320396 C8.68034807,25.1320396 8.33717897,25.1116223 8,25.0717225 C9.90716856,26.2899982 12.1715794,27 14.6044354,27 C22.5295124,27 26.8626808,20.4605209 26.8626808,14.7890615 C26.8626808,14.6030059 26.8588558,14.4175255 26.8507727,14.2332672 C27.6922046,13.6293775 28.4227831,12.8731493 29,12.0123907 Z" id="Shape"></path>
                <path d="M17.5,0 C7.83502092,0 0,7.83502092 0,17.5 C0,27.1649791 7.83502092,35 17.5,35 C27.1649791,35 35,27.1649791 35,17.5 C35,7.83502092 27.1649791,0 17.5,0 Z M29.0977406,29.0977406 C25.9998745,32.1956067 21.8810774,33.9016736 17.5,33.9016736 C13.1189226,33.9016736 9.00012552,32.1956067 5.90225941,29.0977406 C2.80439331,25.9998745 1.09832636,21.8810774 1.09832636,17.5 C1.09832636,13.1189226 2.80439331,9.00012552 5.90225941,5.90225941 C9.00012552,2.80439331 13.1189226,1.09832636 17.5,1.09832636 C21.8810774,1.09832636 25.9998745,2.80439331 29.0977406,5.90225941 C32.1956067,9.00012552 33.9016736,13.1189226 33.9016736,17.5 C33.9016736,21.8810774 32.1956067,25.9998745 29.0977406,29.0977406 Z" id="Shape"></path>
            </g>
        </g>
    </g>
</svg>