<?xml version="1.0" encoding="UTF-8" standalone="no"?>
<svg width="21px" height="21px" viewBox="0 0 21 21" version="1.1" xmlns="http://www.w3.org/2000/svg" xmlns:xlink="http://www.w3.org/1999/xlink">
    <!-- Generator: Sketch 46.2 (44496) - http://www.bohemiancoding.com/sketch -->
    <title>if_Attention_1814088</title>
    <desc>Created with Sketch.</desc>
    <defs></defs>
    <g id="Page-1" stroke="none" stroke-width="1" fill="none" fill-rule="evenodd">
        <g id="Artboard" transform="translate(-169.000000, -75.000000)" fill-rule="nonzero" fill="#FFFCFC">
            <g id="if_Attention_1814088" transform="translate(169.000000, 75.000000)">
                <path d="M10.5,21 C4.70083682,21 0,16.2991632 0,10.5 C0,4.70083682 4.70083682,0 10.5,0 C16.2991632,0 21,4.70083682 21,10.5 C21,16.2991632 16.2991632,21 10.5,21 L10.5,21 Z M10.5,1.14225941 C5.35983264,1.14225941 1.14225941,5.35983264 1.14225941,10.5 C1.14225941,15.6401674 5.35983264,19.8577406 10.5,19.8577406 C15.6401674,19.8577406 19.8577406,15.6401674 19.8577406,10.5 C19.8577406,5.35983264 15.6401674,1.14225941 10.5,1.14225941 L10.5,1.14225941 Z" id="Fill-49"></path>
                <polygon id="Fill-50" points="10 15 11 15 11 16 10 16"></polygon>
                <polyline id="Fill-51" points="10.7857143 14 10.2142857 14 10 8.86363636 10 5 11 5 11 8.86363636 10.7857143 14"></polyline>
            </g>
        </g>
    </g>
</svg>