<?xml version="1.0" encoding="UTF-8"?>
<svg width="36px" height="36px" viewBox="0 0 36 36" version="1.1" xmlns="http://www.w3.org/2000/svg" xmlns:xlink="http://www.w3.org/1999/xlink">
    <!-- Generator: Sketch 46.2 (44496) - http://www.bohemiancoding.com/sketch -->
    <title>if_instagram_245996</title>
    <desc>Created with Sketch.</desc>
    <defs></defs>
    <g id="Welcome" stroke="none" stroke-width="1" fill="none" fill-rule="evenodd">
        <g id="Desktop-HD" transform="translate(-1299.000000, -2958.000000)">
            <g id="Footer" transform="translate(165.000000, 2959.000000)">
                <g id="Follow-us" transform="translate(881.000000, 0.000000)">
                    <g id="if_instagram_245996" transform="translate(254.000000, 0.000000)">
                        <path d="M16.999,4.95223578e-15 C26.3866977,4.95223578e-15 33.998,7.61130225 33.998,16.999 C33.998,26.3866977 26.3866977,33.998 16.999,33.998 C7.61130225,33.998 0,26.3866977 0,16.999 C0,7.61130225 7.61023981,0 16.999,4.95223578e-15 Z" id="Shape" stroke="#0009BD"></path>
                        <path d="M22.524,8 L11.479,8 C9.56,8 8,9.561 8,11.479 L8,22.525 C8,24.444 9.561,26.004 11.479,26.004 L22.525,26.004 C24.444,26.004 26.004,24.443 26.004,22.525 L26.004,11.479 C26.004,9.561 24.443,8 22.524,8 L22.524,8 Z M23.62,10.013 L24.014,10.012 L24.014,13 L21.004,13.01 L20.994,10.022 L23.62,10.013 L23.62,10.013 Z M17.002,13.99 C19.499,13.99 20.014,16.334 20.014,17.003 C20.014,18.662 18.662,20.014 17.002,20.014 C15.341,20.014 13.99,18.662 13.99,17.003 C13.989,16.334 14.505,13.99 17.002,13.99 Z M24.031,22.307 C24.031,23.258 23.258,24.032 22.305,24.032 L11.665,24.032 C10.713,24.032 9.939,23.259 9.939,22.307 L9.939,14.998 L12.439,14.998 C12.207,15.569 12.076,16.349 12.076,17.003 C12.076,19.717 14.284,21.926 16.999,21.926 C19.714,21.926 21.921,19.717 21.921,17.003 C21.921,16.349 21.79,15.569 21.559,14.998 L24.029,14.998 L24.029,22.307 L24.031,22.307 Z" id="Shape" fill="#0009BD" fill-rule="nonzero"></path>
                    </g>
                </g>
            </g>
        </g>
    </g>
</svg>