<?xml version="1.0" encoding="UTF-8" standalone="no"?>
<svg width="21px" height="21px" viewBox="0 0 21 21" version="1.1" xmlns="http://www.w3.org/2000/svg" xmlns:xlink="http://www.w3.org/1999/xlink">
    <!-- Generator: Sketch 46.2 (44496) - http://www.bohemiancoding.com/sketch -->
    <title>if_check_1814079</title>
    <desc>Created with Sketch.</desc>
    <defs></defs>
    <g id="Page-1" stroke="none" stroke-width="1" fill="none" fill-rule="evenodd">
        <g id="Artboard" transform="translate(-169.000000, -155.000000)" fill-rule="nonzero" fill="#FFFFFF">
            <g id="if_check_1814079" transform="translate(169.000000, 155.000000)">
                <path d="M10.5,21 C4.71153846,21 0,16.2884615 0,10.5 C0,4.71153846 4.71153846,0 10.5,0 C16.2884615,0 21,4.71153846 21,10.5 C21,16.2884615 16.2884615,21 10.5,21 L10.5,21 Z M10.5,1.12179487 C5.33974359,1.12179487 1.12179487,5.33974359 1.12179487,10.5 C1.12179487,15.6602564 5.33974359,19.8782051 10.5,19.8782051 C15.6602564,19.8782051 19.8782051,15.6602564 19.8782051,10.5 C19.8782051,5.33974359 15.6602564,1.12179487 10.5,1.12179487 L10.5,1.12179487 Z" id="Fill-43"></path>
                <polyline id="Fill-44" points="9.45238095 14 5 10.2694301 5.67346939 9.70984456 9.45238095 12.880829 15.3265306 8 16 8.55958549 9.45238095 14"></polyline>
            </g>
        </g>
    </g>
</svg>