<?xml version="1.0" encoding="UTF-8"?>
<svg width="36px" height="36px" viewBox="0 0 36 36" version="1.1" xmlns="http://www.w3.org/2000/svg" xmlns:xlink="http://www.w3.org/1999/xlink">
    <!-- Generator: Sketch 46.2 (44496) - http://www.bohemiancoding.com/sketch -->
    <title>if_58-youtube_104445</title>
    <desc>Created with Sketch.</desc>
    <defs></defs>
    <g id="Welcome" stroke="none" stroke-width="1" fill="none" fill-rule="evenodd">
        <g id="Desktop-HD" transform="translate(-1243.000000, -2958.000000)">
            <g id="Footer" transform="translate(165.000000, 2959.000000)">
                <g id="Follow-us" transform="translate(881.000000, 0.000000)">
                    <g id="if_58-youtube_104445" transform="translate(198.000000, 0.000000)">
                        <path d="M17,0 C7.61116751,0 0,7.61116751 0,17 C0,26.3902132 7.61116751,34 17,34 C26.3888325,34 34,26.3902132 34,17 C34,7.61116751 26.3881421,0 17,0 Z" id="Path" stroke="#0009BD"></path>
                        <g id="Group-2" transform="translate(7.000000, 7.000000)" fill="#0009BD">
                            <path d="M12.7147475,1.80237358 L13.8644521,1.80237358 L13.8644521,5.69066047 C13.8644521,5.81166151 13.8905362,5.89774682 13.9386913,5.95072239 C13.9855089,6.00490196 14.0644298,6.03319573 14.172779,6.03319573 C14.2563817,6.03319573 14.3633932,5.99647403 14.4938134,5.92604059 C14.6215584,5.85319917 14.7406086,5.7628999 14.8476201,5.65092879 L14.8476201,1.80237358 L16,1.80237358 L16,6.87358101 L14.8476201,6.87358101 L14.8476201,6.31372549 C14.6376101,6.51960784 14.4162301,6.67793258 14.1854866,6.78508772 C13.9567495,6.89224286 13.7347007,6.94762642 13.5180025,6.94762642 C13.2518114,6.94762642 13.0518337,6.87117303 12.9160629,6.71947024 C12.7829673,6.57017544 12.7147475,6.34442724 12.7147475,6.03981768 L12.7147475,1.80237358 Z M5.30554007,-1.77635684e-15 L6.14691785,2.74630203 L6.22918292,2.74630203 L7.02976257,-1.77635684e-15 L8.34667261,-1.77635684e-15 L6.83914837,4.02253182 L6.83914837,6.87418301 L5.5429718,6.87418301 L5.5429718,4.1495528 L4,3.62359686e-16 L5.30554007,3.62359686e-16 L5.30554007,-1.77635684e-15 Z M8.44097648,2.96181631 C8.44097648,2.57051944 8.59480548,2.25748194 8.90446996,2.02210182 C9.21547208,1.79153767 9.63214803,1.67414861 10.1544978,1.67414861 C10.6313677,1.67414861 11.020622,1.79755762 11.3262735,2.04196766 C11.6292498,2.28637771 11.7810723,2.60423117 11.7810723,2.99191606 L11.7810723,5.61059512 C11.7810723,6.04583763 11.6319251,6.38536292 11.3356371,6.63097695 C11.0353361,6.87659099 10.6253483,7 10.1023297,7 C9.59937577,7 9.19607625,6.87297902 8.89376881,6.62014104 C8.5921302,6.36369109 8.44030766,6.02055384 8.44030766,5.59012728 L8.44030766,2.96181631 L8.44097648,2.96181631 Z M10.0983168,6.12229102 C10.2548211,6.12229102 10.3792219,6.08496732 10.4708505,6.00851393 C10.5624791,5.92965256 10.6092966,5.82249742 10.6092966,5.6876505 L10.6092966,2.9244926 C10.6092966,2.81372549 10.5624791,2.72342621 10.4681752,2.65660475 C10.3738714,2.5873753 10.251477,2.55306158 10.0983168,2.55306158 C9.95853305,2.55306158 9.84483335,2.5873753 9.75588006,2.65660475 C9.66826441,2.72342621 9.62545981,2.81432749 9.62545981,2.9244926 L9.62545981,5.6876505 C9.62545981,5.82610939 9.66625794,5.93326453 9.74852302,6.00851393 C9.82945045,6.08496732 9.94716308,6.12229102 10.0983168,6.12229102 Z" id="Combined-Shape" fill-rule="nonzero"></path>
                            <path d="M20,16.0770125 C20,18.2424732 18.3643344,20 16.3473886,20 L3.65393526,20 C1.63566559,20 0,18.2424732 0,16.0770125 L0,12.9229875 C0,10.7561054 1.63566559,9 3.65393526,9 L16.3473886,9 C18.3643344,9 20,10.7561054 20,12.9229875 L20,16.0770125 Z M2.82054677,11.4554206 L4.00079433,11.4554206 L4.00079433,17.7499677 L5.14132521,17.7499677 L5.14132521,11.4554206 L6.32024889,11.4554206 L6.32024889,10.3837059 L2.82054677,10.3837059 L2.82054677,11.4554206 Z M12.338651,12.249257 C12.1811081,12.249257 12.0255511,12.2926089 11.8719799,12.3786019 C11.7203945,12.4645949 11.5747667,12.5925184 11.439068,12.7573976 L11.439068,10.3837059 L10.4163633,10.3837059 L10.4163633,17.7499677 L11.439068,17.7499677 L11.439068,17.3335056 C11.570795,17.5012275 11.7157609,17.6234656 11.870656,17.7030624 C12.0242272,17.7819486 12.2016284,17.8210363 12.4008738,17.8210363 C12.6994109,17.8210363 12.9310915,17.7194082 13.0873105,17.5140199 C13.2461773,17.3072102 13.3262726,17.0129862 13.3262726,16.628505 L13.3262726,13.612353 C13.3262726,13.1667528 13.2422056,12.8277555 13.0714238,12.5974932 C12.9032899,12.3658095 12.6590322,12.249257 12.338651,12.249257 Z M12.2830476,16.4785502 C12.2830476,16.653379 12.2532601,16.7770384 12.1950089,16.8530818 C12.1367578,16.9305466 12.0460714,16.9682129 11.9222877,16.9682129 C11.8368968,16.9682129 11.7568015,16.947603 11.6780301,16.9099367 C11.6005825,16.8722703 11.5191633,16.8061765 11.439068,16.7180514 L11.439068,13.3323427 C11.5079102,13.2562993 11.5774144,13.2001551 11.6469186,13.1660421 C11.7164229,13.1283758 11.7892368,13.11203 11.8613888,13.11203 C11.9970874,13.11203 12.1029986,13.1589353 12.1771364,13.2520351 C12.2479645,13.3479778 12.2830476,13.4865616 12.2830476,13.67134 L12.2830476,16.4785502 Z M8.64235123,16.445148 C8.54769312,16.5617005 8.44310584,16.6576431 8.32925134,16.7351079 C8.21539684,16.8111513 8.12007679,16.8488177 8.04726286,16.8488177 C7.95128086,16.8488177 7.88310055,16.8211009 7.83941219,16.7628247 C7.79837162,16.7059698 7.77586549,16.6128699 7.77586549,16.4849464 L7.77586549,12.3153508 L6.76507579,12.3153508 L6.76507579,16.8601887 C6.76507579,17.1849722 6.82465082,17.4237628 6.942477,17.5886419 C7.06295095,17.7499677 7.23704243,17.8302752 7.47137089,17.8302752 C7.66134904,17.8302752 7.85794665,17.7748417 8.05983981,17.6582892 C8.26173297,17.5403153 8.4556828,17.3740147 8.64301317,17.1544127 L8.64301317,17.7499677 L9.65512676,17.7499677 L9.65512676,12.3160615 L8.64301317,12.3160615 L8.64301317,16.445148 L8.64235123,16.445148 Z M15.3935262,12.1810311 C14.9394321,12.1810311 14.5727146,12.3281432 14.2854306,12.6266313 C13.9994704,12.9222768 13.8551665,13.3081794 13.8551665,13.7758108 L13.8551665,16.2191498 C13.8551665,16.7436361 13.9868935,17.1544127 14.2470378,17.4514795 C14.5071821,17.7499677 14.8639703,17.8999225 15.3174025,17.8999225 C15.8218045,17.8999225 16.2004369,17.7599173 16.4526379,17.4791963 C16.7088105,17.1963432 16.8339181,16.7770384 16.8339181,16.2191498 L16.8339181,15.9398501 L15.7933408,15.9398501 L15.7933408,16.1871689 C15.7933408,16.5076883 15.7582578,16.714498 15.6927252,16.8075979 C15.6271927,16.9006978 15.5093665,16.947603 15.3412325,16.947603 C15.179718,16.947603 15.0658635,16.8935909 14.9983451,16.7841452 C14.9321507,16.6718568 14.9003773,16.4742861 14.9003773,16.1871689 L14.9003773,15.1644915 L16.83458,15.1644915 L16.83458,13.7765215 C16.83458,13.2626954 16.7114583,12.8689753 16.462567,12.5925184 C16.2130138,12.3181936 15.8562256,12.1810311 15.3935262,12.1810311 Z M15.7933408,14.318775 L14.8997154,14.318775 L14.8997154,13.7694147 C14.8997154,13.5419951 14.9321507,13.3764052 15.0029788,13.281884 C15.0738068,13.1802558 15.1889852,13.1319292 15.3504998,13.1319292 C15.5027471,13.1319292 15.6179255,13.1802558 15.6867677,13.281884 C15.7562719,13.3764052 15.7926789,13.5412844 15.7926789,13.7694147 L15.7926789,14.318775 L15.7933408,14.318775 Z" id="Combined-Shape"></path>
                        </g>
                    </g>
                </g>
            </g>
        </g>
    </g>
</svg>